<svg width="180" height="180" viewBox="0 0 180 180" fill="none" xmlns="http://www.w3.org/2000/svg">
  <rect width="180" height="180" rx="40" fill="#0F1115"/>
  <path d="M50 134V46h45c18.4 0 29.4 9.4 29.4 23.1 0 9.1-4.9 15.8-14.1 19.3 11 3.1 17.6 10.7 17.6 21.4 0 15-12.4 24.2-32.2 24.2H50Zm22.5-51.7h19.4c6.9 0 10.7-3.2 10.7-8.7 0-5.4-3.9-8.5-10.9-8.5H72.5v17.2Zm0 33h22.2c7.7 0 11.5-3.4 11.5-9.6 0-6.1-4.2-9.6-12-9.6H72.5v19.2Z" fill="#F2EEE5"/>
  <path d="M141 36v31M125.5 51.5h31" stroke="#86C7B6" stroke-width="6" stroke-linecap="round"/>
</svg>
